<!DOCTYPE svg PUBLIC "-//W3C//DTD SVG 20010904//EN" "http://www.w3.org/TR/2001/REC-SVG-20010904/DTD/svg10.dtd">
<svg version="1.0" xmlns="http://www.w3.org/2000/svg" width="1200px" height="302px" viewBox="0 0 12000 3020"
     preserveAspectRatio="xMidYMid meet">
    <g id="layer101" fill="#586077" stroke="none">
        <path d="M0 2715 l0 -305 170 0 170 0 0 -75 0 -75 50 0 50 0 0 -110 c0 -67 4 -110 10 -110 6 0 10 43 10 110 l0 110 40 0 40 0 0 -175 0 -175 85 0 c60 0 87 -4 90 -12 2 -7 9 -125 15 -263 6 -137 17 -389 25 -560 8 -171 19 -422 25 -560 6 -137 13 -269 16 -293 l5 -43 37 7 c20 4 38 8 40 9 4 3 21 436 47 1160 8 242 16 465 18 495 l2 55 87 3 88 3 0 -171 c0 -163 1 -170 20 -170 19 0 20 8 22 168 l3 167 78 3 77 3 0 44 c0 38 3 45 20 45 16 0 20 -7 20 -35 l0 -35 50 0 50 0 0 -735 0 -735 65 0 65 0 2 613 c1 336 3 595 5 575 4 -38 5 -38 49 -38 44 0 44 0 44 35 0 24 5 35 15 35 11 0 15 -11 15 -36 l0 -35 48 3 c45 3 47 4 50 36 2 24 8 32 23 32 10 0 19 -7 19 -15 0 -9 9 -15 25 -15 24 0 25 -3 25 -55 l0 -55 45 0 45 0 0 69 0 70 38 3 37 3 3 85 c2 47 7 89 12 94 6 6 10 34 10 63 0 46 3 53 20 53 18 0 20 -7 20 -55 0 -39 4 -55 13 -55 16 0 27 -176 27 -442 l0 -168 30 0 30 0 0 103 c0 56 3 193 7 305 l6 202 29 0 28 0 1 -187 c1 -104 5 -316 8 -473 l6 -285 26 -3 c26 -3 27 -2 33 65 3 37 9 251 12 476 l7 407 22 0 c19 0 23 -7 29 -52 3 -29 6 -143 6 -253 0 -110 3 -264 7 -343 l6 -142 27 0 28 0 6 278 c3 152 9 330 12 395 l6 117 58 0 c50 0 60 -3 65 -20 5 -15 15 -20 40 -20 l34 0 3 -72 3 -73 63 -3 62 -3 0 -154 0 -155 30 0 30 0 0 155 0 155 55 0 c65 0 59 18 55 -197 l-2 -142 38 -8 c70 -15 345 -10 378 7 l29 15 -2 185 c-2 151 2 204 19 291 21 111 59 238 105 352 l27 67 52 0 52 0 33 -87 c23 -62 43 -150 68 -298 31 -185 34 -223 29 -318 l-6 -107 27 -12 c43 -18 321 -16 357 2 l29 15 2 200 c2 217 9 261 67 439 23 68 39 101 51 104 11 3 17 14 17 33 0 29 1 29 60 29 l60 0 0 -235 0 -235 59 0 58 0 7 -96 c4 -53 6 -188 5 -302 l-2 -206 37 -12 c89 -31 316 -34 422 -5 l39 10 1 333 c0 331 12 494 35 509 7 4 9 17 6 30 -4 13 0 57 9 97 13 58 20 72 35 72 12 0 19 7 19 20 0 18 7 20 60 20 l60 0 0 -265 c0 -170 4 -265 10 -265 6 0 10 -16 10 -35 0 -19 -4 -35 -10 -35 -5 0 -10 -13 -10 -30 l0 -30 65 0 65 0 0 30 c0 23 -4 30 -20 30 -16 0 -20 7 -20 35 0 19 5 35 10 35 6 0 10 53 10 140 0 87 4 140 10 140 6 0 10 -9 10 -20 0 -17 7 -20 44 -20 68 0 76 -6 76 -56 0 -32 -4 -44 -15 -44 -8 0 -15 -5 -15 -10 0 -6 7 -13 15 -16 11 -4 15 -21 15 -55 0 -42 3 -49 20 -49 16 0 20 -7 20 -30 0 -28 2 -30 40 -30 29 0 40 -4 40 -15 0 -43 99 -78 114 -40 3 8 12 15 21 15 8 0 15 9 15 20 0 19 8 20 248 22 l247 3 3 28 c2 15 9 27 18 27 10 0 14 13 14 50 0 38 4 50 15 50 8 0 15 7 15 15 0 8 -7 15 -15 15 -11 0 -15 12 -15 45 0 26 5 45 11 45 7 0 10 17 7 45 l-3 45 40 0 c58 0 85 -10 85 -30 0 -20 -17 -36 -43 -41 -27 -6 -21 -23 12 -32 23 -5 30 -14 33 -35 3 -23 9 -28 46 -36 l42 -10 0 -173 0 -173 26 0 c26 0 26 -1 22 -55 -4 -52 -3 -55 19 -55 13 0 23 -4 23 -10 0 -11 40 -14 40 -2 1 4 1 108 2 231 l1 223 51 -6 c28 -3 61 -6 73 -6 22 0 22 -4 25 -112 3 -110 4 -113 27 -116 21 -3 23 -7 18 -48 -4 -38 -2 -44 14 -44 11 0 19 -4 19 -10 0 -15 40 -12 41 3 0 6 0 83 0 170 l-1 157 155 0 155 0 0 -595 0 -595 55 0 55 0 0 -85 c0 -69 -3 -85 -15 -85 -8 0 -15 -9 -15 -20 0 -17 7 -20 45 -20 33 0 45 -4 45 -15 0 -10 11 -15 35 -15 24 0 35 5 35 15 0 8 5 15 10 15 6 0 10 9 10 20 0 11 -4 20 -10 20 -6 0 -10 68 -10 185 0 158 2 185 15 185 8 0 15 9 15 20 0 11 -7 20 -15 20 -13 0 -15 24 -15 154 0 128 3 155 15 160 19 7 19 35 0 42 -11 5 -15 24 -15 80 0 43 4 74 10 74 6 0 10 33 10 80 0 73 2 80 20 80 13 0 20 7 20 20 0 16 -7 20 -30 20 l-30 0 0 125 0 124 38 6 c20 4 49 9 65 11 l27 6 0 -67 c0 -58 2 -66 18 -63 14 3 18 16 20 71 2 48 7 70 17 74 8 3 15 16 15 29 0 18 7 25 31 31 36 10 43 27 12 31 -18 3 -23 10 -23 35 0 24 6 35 23 42 20 9 22 17 25 108 3 115 22 132 22 19 l0 -78 54 -53 c39 -39 56 -63 58 -85 3 -28 7 -31 40 -34 35 -3 37 -5 40 -40 3 -37 4 -37 51 -40 l47 -3 0 -105 0 -104 50 0 50 0 0 -35 c0 -28 4 -35 19 -35 16 0 20 -8 23 -37 3 -37 4 -38 46 -41 l42 -3 0 40 c0 30 4 41 15 41 10 0 15 -11 15 -35 l0 -35 50 0 50 0 0 35 c0 28 4 35 19 35 10 0 21 -7 25 -15 3 -8 15 -15 26 -15 18 0 20 -6 20 -65 l0 -65 45 0 45 0 0 80 0 80 40 0 40 0 0 99 c0 56 4 103 10 106 6 3 10 50 10 106 l0 101 33 -2 c17 -1 49 -2 70 -1 l37 1 1 78 c1 42 4 65 6 50 4 -24 9 -28 39 -28 l34 0 0 -65 0 -65 30 0 c29 0 30 2 30 45 0 25 5 45 10 45 6 0 10 -4 10 -10 0 -6 30 -10 70 -10 64 0 70 -2 74 -22 2 -13 9 -129 15 -258 6 -129 18 -365 27 -525 8 -159 18 -353 22 -430 l7 -140 43 -3 42 -3 0 -90 c0 -82 -1 -89 -20 -89 -16 0 -20 -7 -20 -35 0 -28 4 -35 20 -35 16 0 20 -7 20 -35 l0 -35 60 0 60 0 0 35 c0 31 3 35 25 35 22 0 25 4 25 35 0 31 -3 35 -25 35 -25 0 -25 1 -25 90 l0 90 39 0 c39 0 40 1 45 43 3 23 10 134 16 247 24 476 42 805 45 808 1 2 6 -30 10 -70 10 -105 31 -216 37 -198 3 8 25 170 48 360 51 419 48 400 71 400 11 0 19 5 19 10 0 6 7 10 15 10 12 0 15 -17 15 -90 l0 -90 34 0 34 0 6 -477 c3 -263 9 -574 12 -691 6 -212 6 -212 29 -212 23 0 23 1 29 188 3 103 9 402 12 665 l6 477 23 0 22 0 7 -687 c3 -379 9 -790 12 -915 l7 -228 27 0 27 0 6 363 c4 199 10 611 14 915 6 509 8 552 23 552 23 0 30 -104 30 -424 0 -133 3 -447 7 -698 l6 -458 34 0 33 0 0 248 c0 136 5 490 11 787 8 451 13 541 25 548 8 4 14 17 14 27 0 13 7 20 20 20 19 0 20 7 20 90 0 88 0 90 24 90 15 0 26 -7 29 -20 3 -12 14 -20 26 -20 20 0 21 -5 21 -80 l0 -80 70 0 c49 0 70 -4 70 -12 0 -7 7 -155 15 -328 24 -517 44 -954 60 -1325 9 -192 18 -356 20 -362 5 -14 71 -18 79 -5 4 7 24 466 51 1222 8 228 17 457 21 508 l6 92 69 0 69 0 0 -70 0 -70 90 0 90 0 0 -90 0 -90 26 0 c26 0 26 -1 22 -55 -4 -52 -3 -55 19 -55 13 0 23 -4 23 -10 0 -15 40 -12 41 3 0 6 0 76 0 155 l1 142 59 0 59 0 0 115 0 115 60 0 60 0 0 -80 c0 -64 3 -80 15 -80 11 0 15 -11 15 -39 0 -31 4 -41 21 -46 11 -4 23 -4 26 -1 4 3 6 70 5 148 -1 79 1 151 4 160 4 15 17 18 65 18 l59 0 0 115 0 115 68 0 c40 0 73 5 80 12 9 9 12 110 12 395 l0 383 -6000 0 -6000 0 0 -305z m6578 -543 c3 -80 -4 -97 -43 -105 l-25 -4 0 94 0 94 33 -3 32 -3 3 -73z m2835 -227 l17 -35 -40 0 -40 0 17 35 c9 19 20 35 23 35 3 0 14 -16 23 -35z m2244 -142 c-2 -16 -4 -5 -4 22 0 28 2 40 4 28 2 -13 2 -35 0 -50z m-2301 1 c25 -56 25 -57 7 -100 -10 -24 -21 -44 -25 -44 -5 0 -8 38 -8 84 0 46 -3 91 -6 100 -3 9 -3 16 0 16 4 0 18 -25 32 -56z m-2638 -39 c3 -71 1 -85 -12 -85 -13 0 -16 15 -16 85 0 62 3 85 13 85 9 0 13 -25 15 -85z m282 30 c0 -24 -5 -35 -15 -35 -10 0 -15 11 -15 35 0 24 5 35 15 35 10 0 15 -11 15 -35z m488 3 c-3 -30 -6 -33 -38 -33 -32 0 -35 3 -38 33 -3 31 -3 32 38 32 41 0 41 -1 38 -32z m-490 -118 c2 -48 0 -60 -13 -60 -12 0 -15 13 -15 60 0 42 4 60 13 60 9 0 14 -19 15 -60z m-968 30 c0 -15 -7 -20 -25 -20 -18 0 -25 5 -25 20 0 15 7 20 25 20 18 0 25 -5 25 -20z m210 0 c0 -15 -7 -20 -25 -20 -18 0 -25 5 -25 20 0 15 7 20 25 20 18 0 25 -5 25 -20z m80 0 c0 -16 -7 -20 -30 -20 -18 0 -30 5 -30 13 0 20 10 27 37 27 16 0 23 -6 23 -20z m70 0 c0 -15 -7 -20 -25 -20 -18 0 -25 5 -25 20 0 15 7 20 25 20 18 0 25 -5 25 -20z m3033 -50 l15 -40 -39 0 c-21 0 -39 2 -39 5 0 11 34 75 40 75 4 0 14 -18 23 -40z m1885 -65 c2 -53 0 -65 -13 -65 -12 0 -15 13 -15 65 0 47 4 65 13 65 9 0 14 -20 15 -65z m-1934 -174 l-18 -46 -7 40 c-5 22 -8 69 -8 105 l0 65 25 -59 c25 -59 25 -59 8 -105z m262 150 c-3 -4 -10 -21 -16 -37 l-12 -29 -13 25 c-22 39 -18 50 16 50 16 0 28 -4 25 -9z m-60 -139 l-15 -37 0 65 c0 64 0 65 15 37 14 -26 14 -32 0 -65z m-137 31 c0 -29 -2 -33 -8 -18 -7 18 -4 55 5 55 2 0 4 -17 3 -37z m1 -115 c0 -14 -8 -18 -35 -18 -40 0 -41 1 -18 57 l18 42 17 -32 c9 -18 17 -40 18 -49z m194 -80 c-3 -13 -13 -39 -21 -58 l-15 -35 -14 31 c-7 17 -16 43 -20 58 -6 25 -5 26 36 26 38 0 41 -2 34 -22z m-258 -131 c-14 -32 -14 -31 -15 33 l0 65 14 -33 c13 -29 13 -38 1 -65z m262 -24 l-4 -38 -13 30 c-10 25 -10 37 1 70 l13 40 3 -32 c2 -18 2 -50 0 -70z m-199 -65 c1 -5 -15 -8 -34 -8 -19 0 -35 2 -35 5 0 2 8 24 17 47 l17 42 17 -40 c10 -21 18 -42 18 -46z m173 10 c7 -15 4 -18 -16 -18 -24 0 -24 2 -14 32 7 20 13 27 16 18 3 -8 9 -23 14 -32z m-2 -55 c0 -5 -6 -28 -14 -52 l-13 -45 -11 34 c-19 53 -16 70 13 70 14 0 25 -3 25 -7z m-170 -12 c0 -4 -5 -23 -11 -41 l-12 -32 -13 32 c-19 44 -18 50 11 50 14 0 25 -4 25 -9z m184 -113 c-8 -82 -8 -83 -17 -41 -7 30 -6 56 3 88 7 25 15 43 17 41 3 -3 2 -42 -3 -88z m-190 -64 c13 -34 7 -54 -18 -54 -23 0 -24 2 -15 32 5 18 9 34 9 35 0 10 19 0 24 -13z m165 -41 c1 -7 -8 -13 -19 -13 -24 0 -23 -2 -8 41 12 34 12 34 19 9 4 -14 7 -31 8 -37z m-159 -83 c0 -27 -3 -30 -30 -30 -25 0 -30 4 -30 23 0 30 7 37 37 37 19 0 23 -5 23 -30z m175 0 c0 -20 -6 -26 -27 -28 -25 -3 -28 0 -28 28 0 28 3 31 28 28 21 -2 27 -8 27 -28z"/>
    </g>

</svg>